<svg id="cngkmzbxlo-Layer_1" class="absolute left-0 top-0 h-full w-full object-contain object-center" xmlns="http://www.w3.org/2000/svg" version="1.1" x="0" y="0" viewBox="0 0 1352.1 230.2" style="enable-background: new 0 0 1352.1 230.2;" xml:space="preserve" role="img" aria-label="Follow up boss"><style>.cngkmzbxlo-st0{fill:transparent}</style><path class="cngkmzbxlo-st0" d="M24.2 196.7v-53.8c6.6 11.5 12.6 13.2 24.5 6.7 26.1-14.2 52.2-28.3 78.2-42.6 2.7-1.5 4.6-1.3 7.1.1 26.7 14.6 53.4 29.2 80.2 43.6 3.1 1.7 7.1 2.6 10.6 2.3 5.9-.4 10.6-5.6 11.5-11.2 1.1-6.3-1.8-11.8-8.2-15.3-29.9-16.3-59.8-32.5-89.7-48.8-5.5-3-10.8-2.9-16.3.1-29.1 15.7-58.2 31.6-87.4 47.3-4.8 2.6-8.7 5.7-10.5 11V81.5c5.5 11.4 12.6 13.6 23.9 7.5 26.4-14.4 52.8-28.7 79.2-43.1 2.2-1.2 3.9-1.3 6.1-.1 14.6 8.1 29.3 16 44 24 12.6 6.9 25.2 13.8 37.8 20.6 8.6 4.6 18.2.7 20.8-8.3 1.9-6.6-1-12.9-8-16.7-31.4-17.1-62.9-34.1-94.4-51.2h1192.5v201H24.1v-11.9c5.7 11.3 12.7 13.5 24 7.3 23.2-12.6 46.5-25.3 69.7-37.9 4.2-2.3 8.4-6.2 12.5-6.2 4.2 0 8.4 3.9 12.6 6.2 23.8 12.9 47.6 25.8 71.3 38.8 4 2.2 8.1 3.2 12.6 1.7 5.6-1.9 9-5.9 9.6-11.7.7-6.3-2.1-11.1-7.7-14.1-30.3-16.5-60.7-33-91-49.5-5.2-2.8-10.2-2.4-15.3.4-29 15.8-58 31.7-87.1 47.3-4.9 2.7-9 5.8-11.1 11.1zm1008.1-44c16.4 0 32.7 1 48.8-.3 15.9-1.3 25.3-15.7 22.5-31.5-1.2-7-5.5-12.1-11.3-15.9 2.3-2.1 4.6-3.8 6.4-6 6.3-7.8 7-16.6 3.5-25.7-3.7-9.7-11.4-15.7-21.5-16.3-15.8-1-31.7-.5-47.5-.6-.2 0-.4.2-.8.5-.1 31.9-.1 64-.1 95.8zM737.1 84c-5.2 0-9.7.2-14.1-.1-2.6-.1-3.7.9-4.6 3.2-5.1 13.1-10.3 26.2-15.5 39.2-.5 1.2-1 2.3-1.8 3.9-5.7-13.3-11-25.9-16.4-38.4-3.4-7.9-3.4-7.8-12-7.9-2.8 0-3.9 1-4.9 3.4-5.5 13.1-11.1 26.1-16.7 39.1-.5 1.1-1 2.2-1.8 3.7-.8-1.9-1.4-3.2-1.9-4.5-5.1-12.8-10.1-25.7-15.3-38.5-.5-1.1-1.5-2.9-2.3-2.9-5.3-.3-10.5-.1-16.2-.1.7 1.9 1.2 3.1 1.6 4.2 8.2 19.1 16.3 38.2 24.5 57.3 3.3 7.8 3.3 7.7 11.9 7.8 2.6 0 3.7-.8 4.7-3.1 5.6-12.9 11.3-25.7 17-38.6.5-1 1-2.1 1.8-3.7 5.8 13 11.7 25.1 16.6 37.6 2.4 6.2 5.6 8.8 12.2 7.8 2.4-.4 3.7-.8 4.7-3.1 5.1-12.2 10.3-24.3 15.5-36.4 4.4-9.7 8.5-19.4 13-29.9zm129.2-27.6v4.4c0 15.2.1 30.4 0 45.6 0 3.2-.2 6.5-1 9.6-3.5 14.2-17.3 23.1-32.6 21.3-16.3-1.9-26.7-12.8-26.9-28.2-.1-16.2 0-32.4-.1-48.6 0-1.3-.1-2.6-.2-4h-16.1c-.1 1-.2 1.9-.2 2.7 0 16.8-.1 33.6.1 50.4 0 3.3.4 6.7 1.2 10 4.4 18.2 18.6 30.5 39.3 33.2 27.3 3.6 53.3-14.5 53.1-45.3-.1-15.8 0-31.6 0-47.4 0-1.2-.1-2.4-.2-3.7h-16.4zm49.4 124.4v-37c1.2 1 1.8 1.5 2.4 2.1 19.3 17.7 49 8.8 55.1-16.6 1.1-4.4 1.4-9.1 1.2-13.7-.7-15.4-9.4-27.4-22.8-31.4-13.3-4-25.4-1.8-35.9 9.4v-9.3h-15.4v96.5h15.4zM378.8 72.2V56.6h-63.3V153h16.4v-40.2h47v-16H332V72.2h46.8zm773.8 82.7c23.6.1 39.6-16 38.7-38.9-.7-17.7-14.1-31.2-33.8-33.3-25.9-2.8-47.7 16.6-41.9 44.5 3.4 16.5 18.4 27.6 37 27.7zm-687.8-36.3c0-21-16.2-36.3-38.4-36.3-22.1 0-38.4 15.4-38.4 36.3 0 21 16.2 36.2 38.4 36.2 22.3.1 38.4-15.1 38.4-36.2zm148.5.5c.4-20.7-15.6-36.4-37.5-36.8-22.1-.4-38.9 14.7-39.3 35.4-.4 20.8 15.3 36.6 36.8 37 23.2.6 39.6-14 40-35.6zm650.7 22c1.7 1.9 3.1 3.8 4.8 5.4 5.7 5.1 12.8 7.2 20.2 8 8.9 1 17.8.9 26-3.3 7.8-4 11-10.7 10.7-19.4-.3-8.1-4.5-13.3-11.6-16.3-3.3-1.4-6.9-2.2-10.3-3.2-5.2-1.4-10.5-2.4-15.5-4.2-1.7-.6-3.3-2.9-3.9-4.8-.8-2.6 1.1-4.5 3.5-5.5 1.5-.6 3.1-1.1 4.6-1.3 8.8-1 16.6 1 22.8 8.1 3.5-3.3 6.9-6.4 10.2-9.4-11.2-16.9-42-15.3-51.8-5.5-8.3 8.3-7.3 23 2.7 29.2 4.1 2.5 8.9 3.8 13.5 5.3 5.2 1.6 10.6 2.7 15.9 4.2 2.6.8 4.1 2.8 4.1 5.6s-1.3 4.9-3.9 5.8c-2.3.8-4.8 1.5-7.3 1.5-9.3.2-17.8-1.8-23.9-10-3.7 3.3-7.1 6.4-10.8 9.8zm-68.1.3c3.1 2.8 5.6 5.7 8.8 7.5 3.6 2.1 7.7 3.7 11.7 4.6 10.4 2.2 20.9 2.5 30.8-2.4 7.9-3.9 11.1-10.7 10.8-19.3-.3-8.1-4.6-13.5-11.9-16.5-3.2-1.3-6.6-2.2-10-3.1-5.1-1.4-10.2-2.5-15.2-3.9-2.6-.7-5-2.5-4.4-5.2.4-2.1 2.4-4 4.1-5.6.9-.8 2.5-.9 3.9-1.1 8.8-1 16.7.8 22.8 8.2 3.5-3.2 7-6.4 10.3-9.5-11.8-16.9-41.2-14.9-50.9-6.3-9.7 8.6-8.6 24.1 2.6 30.6 3 1.7 6.3 2.9 9.7 3.9 5.6 1.6 11.4 2.8 17 4.3 3.4.9 6.1 2.6 5.9 6.6-.2 4.1-3 5.8-6.6 6.4-11 1.8-20.9 0-28.5-9.3-3.4 3.3-6.8 6.3-10.9 10.1zm-703.7 11.8V56.6h-15.4v96.6h15.4zM509 56.5V153h15.3V56.5H509z"></path>
<path d="M24.2 136.1c1.8-5.2 5.7-8.4 10.5-11 29.2-15.7 58.3-31.6 87.4-47.5 5.6-3 10.8-3.1 16.3-.1 29.9 16.3 59.8 32.5 89.7 48.8 6.4 3.5 9.3 9 8.2 15.3-.9 5.6-5.5 10.8-11.5 11.2-3.5.3-7.5-.6-10.6-2.3-26.8-14.3-53.5-28.9-80.2-43.6-2.6-1.4-4.5-1.5-7.1-.1-26 14.3-52.1 28.4-78.2 42.6-11.9 6.4-17.9 4.8-24.5-6.7v-6.6z"></path>
<path d="M133.7 14.3c31.5 17 62.9 34.1 94.4 51.2 7 3.8 9.9 10.1 8 16.7-2.6 8.9-12.2 12.9-20.8 8.3-12.7-6.7-25.2-13.7-37.8-20.6-14.7-8-29.4-15.9-44-24-2.2-1.2-3.9-1.1-6.1.1-26.5 14.3-52.9 28.6-79.3 43-11.3 6.1-18.4 3.9-23.9-7.5v-6.7c2.2-5.4 6.5-8.4 11.4-11.1 30.5-16.4 60.9-33 91.3-49.5 2.3.1 4.6.1 6.8.1zM24.2 196.7c2.1-5.3 6.2-8.3 11-11 29.1-15.7 58.1-31.5 87.1-47.3 5.1-2.8 10.1-3.2 15.3-.4 30.3 16.5 60.7 33 91 49.5 5.6 3.1 8.4 7.8 7.7 14.1-.6 5.9-4 9.8-9.6 11.7-4.4 1.5-8.5.5-12.6-1.7-23.7-13-47.5-25.9-71.3-38.8-4.2-2.3-8.4-6.2-12.6-6.2-4.2 0-8.4 3.9-12.5 6.2-23.2 12.6-46.5 25.3-69.7 37.9-11.3 6.1-18.3 4-24-7.3.2-2.2.2-4.5.2-6.7z"></path>
<path class="cngkmzbxlo-st0" d="M127 14.3c-30.5 16.5-60.9 33-91.4 49.4-5 2.7-9.2 5.7-11.4 11.1V14.2c34.2.1 68.5.1 102.8.1z"></path>
<path d="M1032.3 152.7V56.9c.4-.2.6-.5.8-.5 15.9.1 31.7-.3 47.5.6 10.1.6 17.7 6.6 21.5 16.3 3.5 9.1 2.8 17.9-3.5 25.7-1.8 2.2-4.1 3.9-6.4 6 5.9 3.8 10.1 8.8 11.3 15.9 2.8 15.8-6.6 30.2-22.5 31.5-16 1.3-32.3.3-48.7.3zm16.5-56c9.6 0 18.9.4 28.2-.1 6.4-.3 10.5-5.8 10.5-12.4-.1-6.5-4.3-11.4-11.1-11.7-8.9-.4-17.7-.2-26.6-.2-.3 0-.6.3-1 .5v23.9zm-.2 16.3v24.5h23.2c2.4 0 4.8-.1 7-.7 5.6-1.3 8.9-6 8.7-11.9-.3-6.1-4-11.5-9.4-11.8-9.7-.4-19.4-.1-29.5-.1zM737.1 84c-4.5 10.5-8.6 20.2-12.8 29.9-5.2 12.1-10.4 24.2-15.5 36.4-1 2.3-2.3 2.8-4.7 3.1-6.7 1-9.8-1.6-12.2-7.8-4.9-12.5-10.8-24.6-16.6-37.6-.8 1.6-1.3 2.6-1.8 3.7-5.7 12.8-11.5 25.7-17 38.6-1 2.3-2.1 3.1-4.7 3.1-8.6-.1-8.6 0-11.9-7.8-8.2-19.1-16.3-38.2-24.5-57.3-.5-1.1-.9-2.3-1.6-4.2 5.6 0 10.9-.1 16.2.1.8 0 1.8 1.8 2.3 2.9 5.1 12.8 10.2 25.7 15.3 38.5.5 1.4 1.1 2.7 1.9 4.5.7-1.5 1.3-2.6 1.8-3.7 5.6-13 11.2-26.1 16.7-39.1 1-2.3 2.1-3.4 4.9-3.4 8.6.2 8.6 0 12 7.9 5.4 12.6 10.7 25.2 16.4 38.4.7-1.7 1.3-2.8 1.8-3.9 5.2-13.1 10.4-26.1 15.5-39.2.9-2.3 2-3.3 4.6-3.2 4.2.3 8.7.1 13.9.1zM866.3 56.4h16.3c.1 1.3.2 2.5.2 3.7 0 15.8-.1 31.6 0 47.4.2 30.8-25.8 48.8-53.1 45.3-20.7-2.7-34.9-14.9-39.3-33.2-.8-3.2-1.2-6.6-1.2-10-.1-16.8-.1-33.6-.1-50.4 0-.8.1-1.7.2-2.7h16.1c.1 1.4.2 2.7.2 4 0 16.2-.1 32.4.1 48.6.1 15.5 10.6 26.3 26.9 28.2 15.4 1.8 29.1-7.1 32.6-21.3.8-3.1 1-6.4 1-9.6.1-15.2 0-30.4 0-45.6.1-1.3.1-2.6.1-4.4zM915.7 180.8h-15.4V84.3h15.4v9.3c10.5-11.2 22.6-13.4 35.9-9.4 13.4 4 22.1 16.1 22.8 31.4.2 4.5-.2 9.3-1.2 13.7-6.1 25.4-35.7 34.3-55.1 16.6-.6-.5-1.2-1.1-2.4-2.1v37zm42.6-62.1c0-13.2-8.6-22-21.5-22.1-13.2-.1-21.9 8.8-21.8 22.1.1 13.3 8.6 21.8 21.7 21.8 13 .1 21.6-8.5 21.6-21.8zM378.8 72.2h-46.9v24.6h46.9v16h-47V153h-16.4V56.6h63.3c.1 5 .1 10 .1 15.6zM1152.6 154.9c-18.6-.1-33.7-11.2-37.1-27.7-5.8-27.9 16-47.3 41.9-44.5 19.8 2.1 33.1 15.7 33.8 33.3 1 22.9-15 39-38.6 38.9zm.4-57.9c-13.1 0-22.3 8.9-22.3 21.6 0 12.7 9.5 22 22.5 21.8 12.9-.1 22.2-9.3 22.1-21.9-.1-12.6-9.3-21.5-22.3-21.5zM464.8 118.6c0 21-16.1 36.2-38.4 36.2-22.3 0-38.4-15.2-38.4-36.2 0-20.9 16.3-36.3 38.4-36.3 22.2 0 38.4 15.3 38.4 36.3zm-60.7.1c0 12.7 9.3 21.7 22.2 21.7 13.1 0 22.4-9.2 22.3-22-.1-12.6-9.3-21.4-22.4-21.4-13 .1-22.1 9-22.1 21.7zM613.3 119.1c-.4 21.6-16.8 36.2-40 35.7-21.5-.4-37.2-16.2-36.8-37 .4-20.7 17.1-35.8 39.3-35.4 22 .4 37.9 16 37.5 36.7zM574.9 97c-13.1 0-22.2 8.8-22.2 21.6 0 12.7 9.1 21.7 22.1 21.8 13.1.1 22.5-9 22.4-21.9 0-12.6-9.2-21.5-22.3-21.5zM1264 141.1c3.7-3.4 7.1-6.5 10.7-9.8 6 8.2 14.5 10.2 23.9 10 2.4-.1 4.9-.7 7.3-1.5 2.6-.9 3.9-3 3.9-5.8 0-2.9-1.4-4.9-4.1-5.6-5.3-1.5-10.7-2.6-15.9-4.2-4.6-1.4-9.4-2.8-13.5-5.3-10-6.1-11-20.8-2.7-29.2 9.7-9.8 40.6-11.4 51.8 5.5-3.3 3.1-6.7 6.1-10.2 9.4-6.2-7.1-14-9.2-22.8-8.1-1.6.2-3.2.7-4.6 1.3-2.4 1-4.3 2.9-3.5 5.5.6 1.9 2.2 4.2 3.9 4.8 5 1.8 10.3 2.8 15.5 4.2 3.5.9 7.1 1.8 10.3 3.2 7.1 3 11.3 8.2 11.6 16.3.3 8.6-2.9 15.4-10.7 19.4-8.2 4.2-17.1 4.3-26 3.3-7.4-.8-14.5-2.9-20.2-8-1.6-1.6-3-3.5-4.7-5.4zM1195.9 141.4c4.1-3.8 7.5-6.8 11-10 7.6 9.3 17.5 11.1 28.5 9.3 3.6-.6 6.4-2.3 6.6-6.4.2-4-2.5-5.7-5.9-6.6-5.7-1.5-11.4-2.7-17-4.3-3.3-1-6.7-2.2-9.7-3.9-11.1-6.5-12.2-22-2.6-30.6 9.6-8.6 39.1-10.6 50.9 6.3-3.4 3.1-6.8 6.2-10.3 9.5-6.2-7.3-14-9.1-22.8-8.2-1.3.2-3 .3-3.9 1.1-1.7 1.6-3.7 3.5-4.1 5.6-.6 2.7 1.8 4.5 4.4 5.2 5 1.4 10.2 2.5 15.2 3.9 3.4.9 6.8 1.7 10 3.1 7.3 3 11.7 8.4 11.9 16.5.3 8.6-2.9 15.4-10.8 19.3-9.9 4.9-20.3 4.6-30.8 2.4-4.1-.9-8.1-2.5-11.7-4.6-3.3-1.9-5.8-4.8-8.9-7.6zM492.2 153.2h-15.4V56.6h15.4v96.6zM509 56.5h15.3V153H509V56.5z"></path>
<path class="cngkmzbxlo-st0" d="M1048.8 96.7v-24c.3-.2.7-.5 1-.5 8.9 0 17.7-.2 26.6.2 6.8.3 11.1 5.2 11.1 11.7.1 6.6-4 12.1-10.5 12.4-9.2.6-18.6.2-28.2.2zM1048.6 113c10.1 0 19.8-.4 29.5.1 5.4.3 9.2 5.7 9.4 11.8.2 5.9-3.1 10.6-8.7 11.9-2.3.5-4.7.6-7 .7-7.6.1-15.2 0-23.2 0V113zM958.3 118.7c0 13.2-8.6 21.9-21.6 21.9-13.1 0-21.6-8.5-21.7-21.8-.1-13.4 8.6-22.2 21.8-22.1 12.9 0 21.5 8.8 21.5 22zM1153 97c13.1 0 22.3 8.9 22.4 21.5.1 12.6-9.2 21.7-22.1 21.9-13 .1-22.6-9.1-22.5-21.8-.1-12.7 9.1-21.5 22.2-21.6zM404.1 118.7c0-12.8 9-21.6 22.1-21.7 13.1 0 22.3 8.8 22.4 21.4.1 12.8-9.2 22-22.3 22-12.9 0-22.1-9-22.2-21.7zM574.9 97c13.1 0 22.3 8.8 22.3 21.5 0 12.8-9.3 22-22.4 21.9-13-.1-22.1-9.1-22.1-21.8 0-12.8 9.1-21.6 22.2-21.6z"></path>
</svg>