<svg id="fbkcnffgpa-Cellucor_Logo" class="absolute left-0 top-0 h-full w-full object-contain object-center" xmlns="http://www.w3.org/2000/svg" data-name="Cellucor Logo" viewBox="0 0 667.51 80.33" role="img" aria-label="Cellucor">
<defs><style>.fbkcnffgpa-cls-1{fill:#000}.fbkcnffgpa-cls-2{fill:#000}</style></defs>
<g id="fbkcnffgpa-Cellucor-Logo_Color">
<path class="fbkcnffgpa-cls-1" d="M662.61,16.62a10.38,10.38,0,0,0-2,.19L659.43,22h1.2l.46-2h.57c.67,0,.93.25.9.82A3.23,3.23,0,0,0,662.7,22H664a2.71,2.71,0,0,1-.1-1.25c0-.71-.21-1.12-.67-1.28v-.06a1.8,1.8,0,0,0,1.35-1.24,1.2,1.2,0,0,0-.26-1.12A2.56,2.56,0,0,0,662.61,16.62Zm.65,1.85c-.12.54-.7.76-1.38.76h-.56l.32-1.48a2.65,2.65,0,0,1,.68-.07C663.09,17.68,663.36,18,663.26,18.47Z"></path>
<path class="fbkcnffgpa-cls-1" d="M663.23,14.42h0a6.93,6.93,0,0,0-6.52,5.21,4.09,4.09,0,0,0,4.2,5.24,6.84,6.84,0,0,0,6.49-5.24A4.05,4.05,0,0,0,663.23,14.42ZM666,19.23a5.21,5.21,0,0,1-4.8,4.12h-.05c-2.33,0-3.62-1.82-3.12-4.12a5.3,5.3,0,0,1,4.88-4.12h0C665.26,15.11,666.52,17,666,19.23Z"></path>
<path class="fbkcnffgpa-cls-1" d="M119.52,33.2a7.69,7.69,0,0,1,2.16-3.44,16.57,16.57,0,0,1,4.23-3.1,10.69,10.69,0,0,1,4.67-1.25h30.73a20.36,20.36,0,0,1,5.89-8.9,39.36,39.36,0,0,1,4.25-3.46h-49c-1.71,0-4,.75-6.82,2.2A31.75,31.75,0,0,0,107.87,21a15,15,0,0,0-4.35,7.21l-5.1,23a12.68,12.68,0,0,0,6,13.42c2.72,1.77,6.4,2.65,11.08,2.65h45.28l.12-.56a20.67,20.67,0,0,1-4-6.45,19.91,19.91,0,0,1-1.46-6.71H123.52a7.78,7.78,0,0,1-4.15-1.16A6.23,6.23,0,0,1,117,49.48a5.94,5.94,0,0,1-.28-3.56Z"></path>
<path class="fbkcnffgpa-cls-1" d="M182.71,30.53a5.29,5.29,0,0,1,1.46-2.5,8.43,8.43,0,0,1,2.67-1.9,6.79,6.79,0,0,1,3.09-.72h42.61l2.74-12.36H187.45a18.54,18.54,0,0,0-7.56,2.25,33.47,33.47,0,0,0-8.42,5.78q-.58.55-1.11,1.11a16.07,16.07,0,0,0-2.54,3.52,10.07,10.07,0,0,0-.89,2.41l-5,22.66a11.14,11.14,0,0,0-.24,3,13.35,13.35,0,0,0,1,4.32l.06.15a14.52,14.52,0,0,0,5.05,6.37,14.15,14.15,0,0,0,8.6,2.6H224.5l2.88-13,0-.06H183.54A6.17,6.17,0,0,1,180,53c-1.14-.81-1.61-1.7-1.37-2.76l.95-4.28H227.6l2.74-12.36H182Z"></path>
<path class="fbkcnffgpa-cls-1" d="M282.33,54.23H255.79a7.31,7.31,0,0,1-3.38-1,8.11,8.11,0,0,1-3.06-3.09,6.44,6.44,0,0,1-.56-4.72L256,13.05H239.71l-8.49,38.34-.39,1.74a.34.34,0,0,1,0,.1c-.26,1.34.12,3.18,1.19,5.42.17.35.35.69.54,1a17.16,17.16,0,0,0,4.26,5,11,11,0,0,0,7.12,2.58h44.48a23.12,23.12,0,0,1-4.21-6.12A17.81,17.81,0,0,1,282.33,54.23Z"></path>
<path class="fbkcnffgpa-cls-1" d="M340.47,54.23H313.6a7.17,7.17,0,0,1-3.35-1,8.16,8.16,0,0,1-3.11-3.09,6.64,6.64,0,0,1-.53-4.72l7.16-32.33H297.53l-8.42,38-.38,1.71-.08.38a4.48,4.48,0,0,0-.07,1.34,12.1,12.1,0,0,0,1.25,4.18,16.71,16.71,0,0,0,3.8,5.16c.32.3.65.6,1,.88.15.13.31.24.47.36a11,11,0,0,0,1.54,1,10.76,10.76,0,0,0,5.11,1.25h44.76a20.49,20.49,0,0,1-4.74-7.42A21.66,21.66,0,0,1,340.47,54.23Z"></path>
<path class="fbkcnffgpa-cls-1" d="M412.61,13.05l-7.48,33.79a7.8,7.8,0,0,1-1.85,3.07A20.13,20.13,0,0,1,399.62,53,7.31,7.31,0,0,1,396,54.23H370.59a5.81,5.81,0,0,1-3.13-1.08,8.13,8.13,0,0,1-2.66-3,5.83,5.83,0,0,1-.5-4.11l7.31-33H355.17L347.36,48.3,347,49.88a13.52,13.52,0,0,0-.17,4.59,14.75,14.75,0,0,0,.85,3.37,14,14,0,0,0,3.9,5.72c.41.36.84.72,1.3,1.06a14.17,14.17,0,0,0,1.43.89,13.32,13.32,0,0,0,2.89,1.19,15.8,15.8,0,0,0,4.33.57h41.11a14.48,14.48,0,0,0,7.46-2.48,30.24,30.24,0,0,0,7.13-6,14.93,14.93,0,0,0,3.68-6.3l8.74-39.44Z"></path>
<path class="fbkcnffgpa-cls-1" d="M480.53,59.84l0-.08a22,22,0,0,1-1.18-6.21H450.77a7.68,7.68,0,0,1-4.15-1.16,5.82,5.82,0,0,1-2.37-2.91,5.72,5.72,0,0,1-.3-3.56l2.81-12.72a7.64,7.64,0,0,1,2.17-3.44,17.12,17.12,0,0,1,4.23-3.1,10.51,10.51,0,0,1,4.65-1.25h27.48a23.13,23.13,0,0,1,3.08-5.68,31.78,31.78,0,0,1,6.36-6.5l0,0,0,0,.2-.14H449.7c-1.72,0-4,.75-6.84,2.2A31.41,31.41,0,0,0,435.11,21c-.36.35-.69.71-1,1.07a13.89,13.89,0,0,0-3.33,6.14l-5.1,23a12.23,12.23,0,0,0,.24,5.89c.11.37.22.75.35,1.13a12.68,12.68,0,0,0,5.34,6.4c2.76,1.77,6.44,2.65,11.12,2.65h42.51a20.49,20.49,0,0,1-4.67-7.35Z"></path>
<path class="fbkcnffgpa-cls-1" d="M568.71,20.79a14.43,14.43,0,0,0-6.43-5.93,17.06,17.06,0,0,0-6.9-1.81H511.25a15.63,15.63,0,0,0-6.12,1.36,28,28,0,0,0-4.1,2.12c-.41.25-.82.52-1.23.8s-.74.51-1.1.78a1.58,1.58,0,0,1-.15.12,26.87,26.87,0,0,0-5.15,5.29A18.63,18.63,0,0,0,492,25.71c-.18.34-.36.69-.52,1s-.29.68-.42,1a15,15,0,0,0-.65,2.14l-4.5,20.32a13.47,13.47,0,0,0-.23,1.55,8.77,8.77,0,0,0-.06,1c0,.34,0,.68,0,1a16.14,16.14,0,0,0,.83,4.11,13.9,13.9,0,0,0,2.63,4.41,11.94,11.94,0,0,0,.85.9c.28.26.57.52.88.77s.49.41.75.6a15.31,15.31,0,0,0,9.22,2.65h44.82A17.59,17.59,0,0,0,553,65.06a27.84,27.84,0,0,0,7.92-6,17.73,17.73,0,0,0,4.54-8.32l4.31-19.51C570.71,27,570.38,23.52,568.71,20.79ZM552.53,34.6,550,45.83a8.87,8.87,0,0,1-3.77,6,11.93,11.93,0,0,1-6.41,1.77h-29q-4.28,0-5.87-2.62a9.05,9.05,0,0,1-.79-6.47l2.38-10.76a6.78,6.78,0,0,1,2.51-3.7,17.79,17.79,0,0,1,4.51-2.83,10.66,10.66,0,0,1,4-1.08h26.07c3.72,0,6.24.82,7.63,2.47A6.86,6.86,0,0,1,552.53,34.6Z"></path>
<path class="fbkcnffgpa-cls-1" d="M642.8,13.05h-64L576.4,24l-.31,1.43h53.06a7.46,7.46,0,0,1,2.55.4,3.54,3.54,0,0,1,1.77,1.26,2.77,2.77,0,0,1,.29,2.32,4.87,4.87,0,0,1-2.27,3.15,7.21,7.21,0,0,1-3.54,1.1H574.28l-5.7,25.72-1.75,7.91h17l4.57-20.59h21.7l15.66,20.59h22.3L632.57,46.59a23.67,23.67,0,0,1,3.43-.45,29.59,29.59,0,0,0,5.29-1.07,11.08,11.08,0,0,0,4.37-2.75,10.94,10.94,0,0,0,2.8-5.57l3-13.54A7.85,7.85,0,0,0,649.85,16,8.77,8.77,0,0,0,642.8,13.05Z"></path>
<path class="fbkcnffgpa-cls-2" d="M31.34,40.16a7.78,7.78,0,0,0,7.86,9.43,11.57,11.57,0,0,0,11-9.43,7.78,7.78,0,0,0-7.87-9.42A11.55,11.55,0,0,0,31.34,40.16Z"></path>
<path class="fbkcnffgpa-cls-2" d="M31.45,66.85l1.27-7.71A15.48,15.48,0,0,1,21,45.31H.11c-1.42,18.21,10.82,32.81,29.11,35L30,75.89l.52-3.19.18-1.08Z"></path>
<path class="fbkcnffgpa-cls-2" d="M17,35h5.59a24.25,24.25,0,0,1,16.3-13.83l1.47-8.91L41,8.71l.18-1.08.41-2.47L42.41,0C23.39,2.22,6.32,16.81,1.74,35H17Z"></path>
<path class="fbkcnffgpa-cls-2" d="M77.22,35h4.16C82.81,16.83,70.56,2.23,52.31,0l-.68,4.13-.58,3.49-.18,1.08-.45,2.72-1.6,9.7A15.51,15.51,0,0,1,60.76,35H77.22Z"></path>
<path class="fbkcnffgpa-cls-2" d="M76.86,45.31H59.14A24.21,24.21,0,0,1,42.61,59.2L41.16,68l-.6,3.62-.18,1.08-.63,3.79-.63,3.83c19-2.22,36.05-16.81,40.63-35Z"></path>
</g>
</svg>