<svg class="absolute left-0 top-0 h-full w-full object-contain object-center" width="240" height="34" xmlns="http://www.w3.org/2000/svg" viewBox="0 0 240 34" fill="none" role="img" aria-label="Effective altruism">
<g clip-path="url(#zekzspjxqu-clip0_281_1229)">
<path d="M11.0177 10.5142C11.433 10.2794 11.7714 10.0704 12.1219 9.88961C14.1647 8.83775 16.4883 10.1244 16.6947 12.369C16.8291 13.8294 16.4403 15.1865 15.8306 16.4567C14.7496 18.6891 13.3274 20.7475 11.613 22.5612C11.327 22.8897 10.967 23.1488 10.5613 23.3183C10.1556 23.4878 9.71535 23.563 9.27497 23.538C8.79489 23.5168 8.3148 23.538 7.83471 23.538C5.88556 23.4981 4.65894 22.6411 4.11884 20.8191C3.69971 19.4696 3.03537 18.205 2.15769 17.0859C1.28932 15.9469 0.662174 14.6498 0.31304 13.2706C-0.0360934 11.8915 -0.100191 10.458 0.124503 9.05425C0.349197 7.65053 0.858159 6.3048 1.62155 5.096C2.38494 3.88719 3.38739 2.83963 4.57013 2.01474C8.41082 -0.694741 13.6918 -0.643087 17.3596 2.01474C20.8931 4.57396 22.3765 8.06764 21.7716 12.376C21.4486 14.5931 20.4888 16.675 19.0039 18.3796C17.8685 19.7273 17.4556 21.4014 17.4292 23.0919C17.4028 24.6814 16.7907 25.7873 15.4033 26.5386C15.3386 26.5819 15.2839 26.6379 15.2424 26.7029C15.2208 26.7288 15.2256 26.7734 15.2184 26.811C17.1388 28.3911 17.7461 29.3138 15.5233 31.3377C15.8762 31.7392 16.2434 32.1383 16.5915 32.5516C16.9396 32.9648 17.0716 33.4039 16.5915 33.7842C16.5009 33.8648 16.3936 33.9253 16.2769 33.9615C16.1602 33.9977 16.0369 34.0089 15.9154 33.9941C15.7939 33.9794 15.6771 33.9392 15.5729 33.8762C15.4688 33.8132 15.3798 33.729 15.3121 33.6293C14.095 32.0984 12.3379 31.9176 10.576 31.7768C9.66144 31.704 8.73728 31.7603 7.81791 31.7392C7.50345 31.7392 7.13619 31.7509 6.88895 31.603C6.76712 31.5212 6.66626 31.4129 6.59423 31.2866C6.5222 31.1604 6.48094 31.0196 6.47367 30.8752C6.50913 30.7366 6.57581 30.6076 6.66885 30.4975C6.76188 30.3874 6.87891 30.299 7.01137 30.2389C7.28262 30.1215 7.63788 30.1849 7.95714 30.1731C9.75266 30.1004 11.5578 30.0464 13.3437 29.9384C13.9702 29.9031 14.6159 29.821 15.0648 29.234C14.8992 28.5766 14.3303 28.4146 13.807 28.2948C13.0678 28.134 12.3163 28.0327 11.5602 27.9919C10.2832 27.9262 9.00372 27.9286 7.71949 27.9004C7.52013 27.9109 7.32021 27.8975 7.12419 27.8605C6.92372 27.8292 6.74176 27.7275 6.61232 27.5746C6.48288 27.4216 6.41482 27.2278 6.42086 27.0293C6.41227 26.9312 6.42445 26.8325 6.45662 26.7392C6.48879 26.646 6.54027 26.5602 6.60785 26.4873C6.67542 26.4144 6.75764 26.3558 6.84937 26.3154C6.9411 26.2749 7.04037 26.2534 7.14099 26.2521C7.69549 26.1958 8.25959 26.2075 8.82129 26.2028C10.5024 26.1943 12.1709 25.9184 13.7614 25.3858C15.2713 24.8763 15.7105 24.2635 15.7657 22.7209C15.7968 20.6708 16.5229 18.6888 17.8301 17.0859C19.3286 15.3273 20.1746 13.1245 20.2305 10.8358C20.279 8.86277 19.637 6.93272 18.411 5.3652C15.1056 0.984012 8.74448 0.286684 4.50531 4.21707C0.92867 7.53231 0.93107 12.7705 3.45873 15.9824C4.46232 17.2484 5.22648 18.6796 5.71513 20.2086C6.27684 21.9649 8.8549 22.6669 10.2111 21.3826C12.4171 19.2812 14.0782 16.8089 14.9328 13.8693C15.0394 13.4929 15.0783 13.1012 15.048 12.7118C14.9376 11.2561 13.5814 10.6409 12.3643 11.4768C11.9899 11.7351 11.7018 12.0262 11.805 12.5451C11.8591 12.8141 11.8591 13.0908 11.805 13.3598C11.7722 13.5969 11.6446 13.8116 11.4502 13.9568C11.2559 14.1021 11.0105 14.166 10.768 14.1346C10.2135 14.1064 10.0287 13.7425 10.0095 13.2612C9.9939 13.0267 9.9939 12.7914 10.0095 12.5568C10.0767 11.8525 9.68065 11.4533 9.09974 11.188C8.80272 11.0622 8.47141 11.0363 8.15776 11.1145C7.84411 11.1927 7.56585 11.3705 7.36663 11.62C6.71851 12.3432 6.6657 13.1696 6.99936 14.0384C7.4959 15.2483 8.22522 16.3538 9.14775 17.2949C9.33738 17.4968 9.54862 17.68 9.71905 17.896C9.79536 17.975 9.85443 18.0683 9.89265 18.1704C9.93088 18.2724 9.94747 18.381 9.94141 18.4895C9.93534 18.598 9.90675 18.7042 9.85738 18.8016C9.80802 18.8989 9.7389 18.9854 9.65424 19.0558C9.58543 19.1292 9.50178 19.1878 9.4086 19.2279C9.31542 19.2679 9.21474 19.2886 9.11295 19.2886C9.01115 19.2886 8.91047 19.2679 8.81729 19.2279C8.7241 19.1878 8.64046 19.1292 8.57165 19.0558C8.01947 18.5486 7.50526 18.0033 7.03297 17.424C5.88796 16.0153 5.08862 14.4868 5.22064 12.5944C5.30466 11.35 5.80395 10.3968 6.95136 9.85674C8.09876 9.31672 9.25817 9.26976 10.3432 10.0657C10.5328 10.2066 10.7344 10.3287 11.0177 10.5142Z" fill="black"></path>
<path d="M42.7778 20.6875H37.4056C37.2664 22.3686 37.36 23.937 37.3432 25.5711H42.2905C42.4081 24.9912 42.5305 24.43 42.6505 23.8008H45.1422V28.0716C44.2972 28.3299 33.6201 28.3933 32.1799 28.1303V26.252L33.7665 25.7472C33.7858 25.3645 33.8194 24.9841 33.8194 24.6014C33.8194 21.4333 33.8194 18.266 33.8194 15.0995C33.8194 13.7424 33.9778 13.6907 32.4487 13.4559C32.3767 13.4559 32.3143 13.3784 32.1655 13.2845C32.1391 13.0497 32.091 12.7445 32.0838 12.444C32.0766 12.1434 32.1175 11.8312 32.1439 11.4297H45.147V15.7921H42.6001C42.4969 15.2591 42.3913 14.7027 42.2665 14.0617H37.444V18.0836H42.7778V20.6875Z" fill="black"></path>
<path d="M220.664 17.7642L219.089 17.4519V16.076H222.467C222.573 16.4235 222.673 16.7452 222.774 17.0715C225.76 15.0829 228.113 15.3176 230.139 18.0107C230.233 17.794 230.346 17.5858 230.477 17.3885C231.677 15.8952 233.302 15.5454 235.103 15.8741C236.968 16.2169 238.197 17.8064 238.307 20.0322C238.391 21.7486 238.353 23.4719 238.367 25.1976C238.367 25.6672 238.367 26.1368 238.367 26.6862L239.932 26.968C239.954 27.3741 239.978 27.8155 240.002 28.2358C239.104 28.5692 236.017 28.6209 234.69 28.3368V26.968L236.229 26.7543C236.304 26.5542 236.354 26.3461 236.38 26.1344C236.38 24.2561 236.409 22.3778 236.349 20.4995C236.284 18.4873 235.412 17.5294 233.759 17.5082C232.009 17.4848 230.729 18.6822 230.626 20.5417C230.552 21.9059 230.604 23.277 230.6 24.6459V26.712L232.311 26.9609V28.4307H226.838V26.9562L228.631 26.7214C228.631 25.261 228.65 23.8265 228.631 22.3919C228.642 21.4956 228.581 20.5999 228.449 19.7129C228.154 18.114 227.292 17.466 225.729 17.5035C224.212 17.5411 222.849 18.539 222.786 19.9125C222.681 22.1641 222.757 24.4252 222.757 26.7214L224.536 26.9562V28.2616C223.706 28.5481 220.741 28.6115 219.077 28.3579C219.058 27.947 219.037 27.5056 219.013 26.9773L220.674 26.7425L220.664 17.7642Z" fill="black"></path>
<path d="M132.76 23.2726H125.48C125.305 24.8386 126.812 25.9914 128.048 25.8553C129.143 25.7308 130.209 25.442 131.459 25.1932C131.546 25.3505 131.738 25.6627 131.901 26.0102C132.064 26.3577 132.172 26.6489 132.35 27.0809C130.778 28.1946 128.834 28.6853 126.908 28.4544C123.862 28.1163 121.891 25.9187 121.805 22.911C121.766 21.5328 121.85 20.1898 122.494 18.9196C124.196 15.5527 129.097 14.8694 131.423 17.7221C131.884 18.2632 132.212 18.9 132.383 19.584C132.607 20.704 132.628 21.8756 132.76 23.2726ZM129.2 20.9059C129.143 19.2318 128.528 18.558 127.22 18.6566C126.106 18.7317 125.494 19.5535 125.588 20.9059H129.2Z" fill="black"></path>
<path d="M76.3072 23.2865H69.2235C69.2979 24.9841 70.2533 25.9467 71.864 25.8364C72.9538 25.7636 74.0244 25.4091 75.2246 25.1508C75.4646 25.6626 75.7455 26.2919 76.0864 27.0291C74.5397 28.1691 72.5996 28.6745 70.6782 28.4378C67.7377 28.1138 65.9733 26.3247 65.5701 23.4086C65.2916 21.3988 65.6085 19.5252 66.8807 17.8605C68.1121 16.2569 70.2413 15.5338 72.8362 16.217C74.9005 16.7523 76.1632 18.4475 76.2808 20.6475C76.3432 21.4622 76.3072 22.2769 76.3072 23.2865ZM69.1515 20.8682H72.8362C72.9034 19.4219 72.4641 18.8067 71.3959 18.6588C70.1861 18.4874 69.2643 19.3444 69.1515 20.8682Z" fill="black"></path>
<path d="M49.2063 16.1203C49.2063 14.343 49.1919 12.568 50.9106 11.4738C52.3389 10.5652 53.8944 10.4948 55.5459 10.9761C55.8219 11.8119 55.4283 12.5727 55.3658 13.4156C54.5017 13.479 53.5511 13.115 52.9942 13.9344C52.5501 14.5848 52.6918 15.3432 52.8214 16.1556L55.049 16.2753V18.5528L52.807 18.7148V25.7961L54.1728 26.2163V28.1909H47.7445V26.2539L49.1679 25.7608C49.2495 23.4975 49.1679 21.1683 49.2159 18.7617C48.9375 18.7195 48.6782 18.6749 48.4166 18.642C48.155 18.6091 47.8717 18.5903 47.5068 18.5551V16.3129L49.2063 16.1203Z" fill="black"></path>
<path d="M150.682 28.4515V27.0123L151.882 26.693L150.807 23.3777H143.846C143.486 24.4836 143.126 25.5824 142.751 26.7282L143.918 26.963V28.3928H139.438V26.9958L140.716 26.7141C141.524 24.5399 142.357 22.3118 143.181 20.0813C144.17 17.4046 145.156 14.7265 146.14 12.0467C146.33 11.5278 146.496 11.0653 147.259 11.0606C148.022 11.0559 148.315 11.3517 148.541 11.9857C149.741 15.2962 150.941 18.5974 152.161 21.9009C152.751 23.5115 153.361 25.1222 153.942 26.7305L155.197 26.9465C155.217 27.3832 155.238 27.8246 155.267 28.421C153.741 28.5203 152.21 28.5305 150.682 28.4515ZM147.353 13.8593C146.378 16.5336 145.512 18.9167 144.602 21.4102H150.094C149.191 18.9214 148.318 16.5124 147.353 13.8593Z" fill="black"></path>
<path d="M56.8228 28.1943V26.269L58.3279 25.7478V18.7299L56.5996 18.5327V16.3139L58.3543 16.1261C58.3807 14.3299 58.2919 12.4446 60.1811 11.3786C61.5685 10.5944 63.0616 10.4958 64.6242 10.9677C64.9507 11.7754 64.6074 12.5479 64.4994 13.3884C63.6569 13.5011 62.7111 13.1207 62.1326 13.9167C61.6525 14.5718 61.8614 15.3254 61.9142 16.1542L64.149 16.2763V18.5256L61.9286 18.7275V25.7877L63.3088 26.2174V28.1896L56.8228 28.1943Z" fill="black"></path>
<path d="M107.928 18.2057C107.904 17.924 107.872 17.6939 107.865 17.4638C107.865 17.1163 107.865 16.7594 107.865 16.4495C108.809 16.1607 112.083 16.1185 113.437 16.3673V18.1564L112.476 18.6448C113.007 20.455 113.545 22.2817 114.157 24.3361C114.757 22.3216 115.304 20.4879 115.837 18.6636C114.586 18.0883 114.507 17.8864 114.898 16.2969H120.386V18.1752C119.322 18.2621 119.099 19.1026 118.809 19.9103C117.925 22.3756 117.031 24.837 116.125 27.2945C115.765 28.2782 115.755 28.297 114.685 28.2853C112.032 28.2524 112.733 28.6563 111.804 26.2919C110.94 24.1107 110.146 21.9013 109.404 19.6826C109.116 18.9195 108.804 18.3302 107.928 18.2057Z" fill="black"></path>
<path d="M86.1367 24.0784H89.0797C89.1925 25.5553 88.566 26.6048 87.4738 27.4359C85.1165 29.225 80.4645 28.9292 78.9666 25.358C78.0617 23.198 78.0521 21.0074 79.0962 18.8919C79.982 17.0958 81.5135 16.1425 83.5611 16.0181C85.0997 15.9218 86.588 16.0697 87.9467 16.8774C88.6452 17.2906 89.0893 17.7931 88.9957 18.6736C88.9236 19.3662 88.9812 20.0682 88.9812 20.9416C88.1699 20.9534 87.4282 20.9698 86.6888 20.9675C86.1655 20.9675 86.0815 20.5589 85.9519 20.1856C85.4718 18.7769 85.2534 18.6149 84.1276 18.6477C83.0018 18.6806 82.38 19.1948 82.0464 20.3899C81.6938 21.6396 81.698 22.96 82.0584 24.2076C82.356 25.2712 82.9898 25.8065 83.9643 25.8511C84.9389 25.8957 85.5102 25.4801 85.9591 24.3672C86.0131 24.268 86.0724 24.1716 86.1367 24.0784Z" fill="black"></path>
<path d="M98.5471 28.1115C97.2869 28.4566 96.2115 28.6445 95.0809 28.3463C93.8375 28.0246 93.043 27.2827 92.7813 26.0641C92.6477 25.414 92.5785 24.7527 92.5749 24.0895C92.5485 22.3357 92.5749 20.5794 92.5749 18.7622L90.9258 18.5274V16.2898L92.5509 16.1466V13.3291H96.0027V16.1325L98.0719 16.2781V18.5508L96.0315 18.7199V22.4765C96.0315 23.1034 96.0123 23.728 96.0315 24.3549C96.0603 25.4912 96.3147 25.7331 97.4526 25.7425H98.2687C98.3527 26.5243 98.4463 27.2757 98.5471 28.1115Z" fill="black"></path>
<path d="M196.031 26.9873V28.4899C195.087 28.4899 194.219 28.4899 193.352 28.4899C192.553 28.4899 192.74 27.8161 192.581 27.3042C192.218 27.5871 191.838 27.8497 191.444 28.0908C189.106 29.354 185.275 28.9172 184.744 24.8295C184.526 23.132 184.619 21.3969 184.578 19.6782C184.564 19.0936 184.578 18.5043 184.578 17.7999L183.138 17.3914V16.0742H186.511C186.511 16.6354 186.511 17.1331 186.511 17.6285C186.556 19.8943 186.511 22.167 186.684 24.421C186.832 26.3439 187.74 27.0037 189.564 26.9004C191.444 26.7877 192.567 25.6959 192.577 23.9467C192.589 21.9181 192.577 19.8896 192.577 17.7999L190.872 17.4125V16.0766H194.495V26.6633L196.031 26.9873Z" fill="black"></path>
<path d="M207.097 24.3385H208.489C208.611 24.7334 208.697 25.138 208.746 25.5477C208.742 25.7831 208.817 26.0135 208.959 26.2031C209.102 26.3928 209.305 26.5313 209.536 26.5972C210.644 27.0744 211.892 27.1387 213.045 26.778C213.854 26.5174 214.466 25.8388 214.452 25.1884C214.448 24.8319 214.332 24.4852 214.12 24.1956C213.907 23.906 213.608 23.6878 213.264 23.5707C212.606 23.3031 211.903 23.1411 211.226 22.9133C210.362 22.6198 209.457 22.3968 208.653 21.9859C206.591 20.9294 206.341 18.3913 208.11 16.8909C209.579 15.6442 211.319 15.656 213.103 15.9119C213.221 15.9335 213.337 15.9657 213.449 16.0081C216.204 16.9144 216.375 17.2596 216.031 20.1851H214.555C214.481 19.9052 214.429 19.6203 214.399 19.3328C214.375 18.3443 213.782 17.8724 212.88 17.6611C211.952 17.4007 210.965 17.4328 210.057 17.7526C209.729 17.8523 209.443 18.053 209.242 18.3246C209.04 18.5963 208.934 18.9244 208.938 19.26C208.921 19.577 209.012 19.8907 209.198 20.1511C209.383 20.4115 209.653 20.6036 209.963 20.6969C210.71 20.9693 211.487 21.1524 212.244 21.4013C212.969 21.6108 213.681 21.8609 214.378 22.1503C215.635 22.7208 216.423 23.6858 216.408 25.0804C216.391 26.5502 215.585 27.5927 214.248 28.1891C212.69 28.8794 211.07 28.8535 209.447 28.4239C209.409 28.4118 209.371 28.3977 209.334 28.3816C206.787 27.4495 206.593 27.3509 207.097 24.3385Z" fill="black"></path>
<path d="M100.011 18.2202V16.2949H105.071V25.7476L106.632 26.2406V28.0532C105.839 28.3373 101.66 28.4078 100.129 28.1284C100.098 27.5625 100.066 26.9544 100.033 26.3087L101.605 25.7711V18.6898L100.011 18.2202Z" fill="black"></path>
<path d="M160.283 26.6656C162.252 27.0318 162.252 27.0318 161.981 28.4711C160.25 28.5228 158.481 28.511 156.608 28.4711V26.9638L158.231 26.729V12.4537L156.618 12.2447V10.8008H160.283V26.6656Z" fill="black"></path>
<path d="M170.714 26.8838L170.966 28.0813C168.904 29.4501 166.105 28.4898 165.97 26.0996C165.884 24.5805 165.874 23.0474 165.853 21.5306C165.836 20.3191 165.853 19.1076 165.853 17.774L163.865 17.565V16.0741L165.786 15.9238C165.829 14.9847 165.872 14.0619 165.92 13.0547H167.727V15.9262L170.428 16.0436V17.6002L167.787 17.7646V19.1968C167.787 20.8779 167.787 22.559 167.787 24.2424C167.784 24.6347 167.805 25.0268 167.852 25.4164C168.032 26.7312 168.301 26.9449 169.626 26.9003C169.948 26.8744 170.267 26.8838 170.714 26.8838Z" fill="black"></path>
<path d="M177.099 26.6866C179.07 27.0294 179.07 27.0294 178.779 28.4757C177.044 28.5344 175.27 28.5062 173.392 28.4757V26.9636L175.03 26.7406V17.788L173.388 17.4194V16.06H176.748L177.118 17.1846C178.349 16.0107 179.708 15.4565 181.501 15.9778L181.304 17.6894C180.75 17.6894 180.284 17.6753 179.818 17.6894C178.316 17.7458 177.149 18.8187 177.118 20.2862C177.065 22.3993 177.099 24.5101 177.099 26.6866Z" fill="black"></path>
<path d="M202.267 26.7295L203.948 26.9643V28.427H198.547C198.488 28.2615 198.447 28.0909 198.422 27.9175C198.422 27.6499 198.446 27.3799 198.467 26.9784L200.239 26.7436V17.7652L198.513 17.4271V16.0583C199.682 15.9409 200.858 16.0019 202.219 16.0231C202.301 19.613 202.195 23.1442 202.267 26.7295Z" fill="black"></path>
<path d="M105.074 10.998V13.4211H101.775V10.998H105.074Z" fill="black"></path>
<path d="M202.164 10.8385V13.1019H200.381V10.9089C200.871 10.5192 201.471 10.6835 202.164 10.8385Z" fill="black"></path>
</g>
<defs>
<clipPath id="zekzspjxqu-clip0_281_1229">
<rect width="240" height="34" fill="white"></rect>
</clipPath>
</defs>
</svg>