<svg class="absolute left-0 top-0 h-full w-full object-contain object-center" width="167" height="27" xmlns="http://www.w3.org/2000/svg" viewBox="0 0 167 27" fill="none" role="img" aria-label="Givewell">
<g clip-path="url(#uejsocalhf-clip0_281_1251)">
<path d="M0 12.6322C0.0263677 12.473 0.0626238 12.3201 0.0725117 12.1515C0.280158 9.39847 1.10745 6.84517 2.85431 4.60714C4.62983 2.31529 7.2668 0.756577 10.2208 0.252806C11.4056 0.0332022 12.6146 -0.0454409 13.82 0.0187019C15.67 0.131533 17.4663 0.654357 19.0639 1.54506C19.7066 1.88529 20.3196 2.27858 20.9459 2.6469C21.0085 2.68436 21.0777 2.71558 21.1766 2.76552C21.3776 2.35037 21.5754 1.95396 21.7666 1.55442C21.8523 1.3765 21.9478 1.20171 22.0171 1.02066C22.0375 0.945408 22.0847 0.879137 22.1508 0.833065C22.2168 0.786994 22.2977 0.763952 22.3796 0.767833C23.2728 0.767833 24.1627 0.767833 25.0526 0.767833C25.0724 0.767833 25.0889 0.786556 25.1284 0.811527V10.6252C25.0131 10.6252 24.8977 10.647 24.7988 10.647C24.0045 10.647 23.2102 10.6127 22.4192 10.6127C22.3235 10.6249 22.2265 10.6024 22.1477 10.5497C22.0688 10.497 22.0139 10.4181 21.994 10.3286C21.6274 9.30727 21.1767 8.31473 20.6459 7.3602C20.0269 6.2082 19.1123 5.22185 17.9861 4.49165C16.8717 3.80146 15.5898 3.39212 14.2616 3.3024C13.2299 3.22445 12.1931 3.37403 11.2327 3.73939C10.3708 4.09068 9.61191 4.63481 9.02106 5.32506C7.74222 6.74217 7.07973 8.42148 6.71388 10.2225C6.43619 11.5645 6.32557 12.9327 6.38428 14.2991C6.40725 15.8823 6.68169 17.4533 7.19839 18.9593C7.58239 20.0457 8.2072 21.0418 9.03094 21.8809C9.84363 22.6657 10.8706 23.2212 11.9973 23.4853C13.9103 23.9903 15.9516 23.8241 17.7455 23.0171C18.9716 22.4833 19.667 21.5063 20.0527 20.314C20.4083 19.122 20.4254 17.8622 20.1021 16.6619C20.0412 16.4362 19.9172 16.2301 19.7432 16.0654C19.5693 15.9006 19.3517 15.7832 19.1133 15.7255C18.6935 15.5888 18.2572 15.5028 17.8147 15.4696C17.2742 15.429 16.7303 15.4696 16.1865 15.4696C16.0678 15.4696 15.9459 15.4696 15.8272 15.4696C15.5306 15.4384 15.4976 15.4071 15.4976 15.1231C15.4976 14.4021 15.4976 13.6841 15.4976 12.9631C15.4976 12.8851 15.4976 12.8039 15.5207 12.6947C15.6492 12.6947 15.7646 12.6759 15.88 12.6759H27.8839C28.5431 12.6759 29.2286 12.7009 29.901 12.7134C30.1943 12.7134 30.2306 12.7446 30.2306 13.0255C30.2306 13.7372 30.2306 14.4458 30.2306 15.1543C30.2306 15.351 30.1581 15.4228 29.9438 15.4321C29.2286 15.4602 28.5101 15.482 27.8015 15.5601C27.3423 15.6367 26.8887 15.7409 26.4435 15.8722C26.3594 15.8932 26.2851 15.9402 26.2325 16.0058C26.1799 16.0715 26.1521 16.1519 26.1535 16.2343C25.9981 17.4991 25.9331 18.7724 25.959 20.0455C25.959 21.9662 25.9656 23.888 25.9788 25.8107C25.9788 25.8919 25.9788 25.973 25.9788 26.0573C25.9788 26.229 25.903 26.2914 25.725 26.2883C25.3427 26.2883 24.9636 26.2883 24.5813 26.2883C24.199 26.2883 23.7342 26.2883 23.3091 26.2883C23.2182 26.2948 23.1272 26.2772 23.0463 26.2375C22.9654 26.1978 22.8978 26.1376 22.8509 26.0636C22.5016 25.5922 22.139 25.1271 21.7797 24.6652C21.7237 24.5903 21.6578 24.5247 21.5787 24.4342C21.4304 24.5185 21.2886 24.5934 21.1535 24.6745C19.4259 25.7517 17.4902 26.4943 15.4581 26.8595C15.2109 26.9032 14.9637 26.9251 14.7165 26.9625C14.6229 26.9817 14.5305 27.0056 14.4396 27.0343H11.6348C11.5293 27.0125 11.4271 26.9812 11.3216 26.9688C10.9591 26.9219 10.5866 26.9032 10.2274 26.8345C8.41091 26.5305 6.69414 25.8301 5.21302 24.7888C3.73191 23.7475 2.52713 22.3939 1.69412 20.8352C0.629524 18.9437 0.280153 16.8586 0.0988749 14.7485C0.0988749 14.5893 0.0494419 14.4364 0.0230742 14.271L0 12.6322Z" fill="black"></path>
<path d="M112.135 0.745692V3.48003L111.4 3.57055C110.701 3.65171 110.003 3.74222 109.304 3.81714C109.206 3.81932 109.113 3.85617 109.043 3.92035C108.973 3.98453 108.931 4.07136 108.925 4.16362C108.861 4.48775 108.886 4.82197 108.997 5.13436C109.475 6.71066 109.957 8.28697 110.454 9.86015C111.447 12.9815 112.445 16.0925 113.447 19.1931C113.47 19.2711 113.503 19.3492 113.556 19.5052C113.648 19.1931 113.717 18.934 113.793 18.6843C114.966 14.7451 116.141 10.807 117.316 6.86985C117.547 6.14234 117.705 5.3963 117.791 4.64119C117.791 4.55691 117.791 4.47575 117.791 4.39459C117.801 4.35236 117.803 4.30864 117.795 4.26594C117.787 4.22325 117.77 4.18243 117.746 4.14586C117.721 4.10929 117.689 4.07767 117.652 4.05286C117.614 4.02805 117.572 4.01052 117.527 4.0013C116.96 3.79579 116.361 3.67675 115.754 3.64859C115.309 3.61737 114.864 3.60176 114.436 3.57679C114.33 3.57679 114.225 3.54245 114.106 3.52373V0.751941H125.375C125.391 0.831273 125.401 0.911596 125.405 0.992284C125.405 1.73205 125.405 2.47494 125.405 3.21471C125.413 3.25458 125.412 3.29561 125.402 3.33509C125.392 3.37457 125.373 3.41161 125.347 3.44376C125.321 3.47591 125.288 3.50244 125.25 3.5216C125.212 3.54077 125.171 3.55213 125.128 3.55494C124.68 3.63922 124.238 3.73598 123.81 3.82962C123.482 3.88429 123.175 4.01619 122.916 4.21314C122.656 4.41009 122.454 4.66573 122.326 4.95645C121.929 5.86479 121.598 6.79826 121.338 7.75009L115.965 24.9177C115.856 25.2704 115.744 25.6231 115.636 25.979C115.54 26.2755 115.54 26.2911 115.217 26.2911H111.071C110.851 26.28 110.631 26.28 110.411 26.2911C110.177 26.313 110.082 26.21 110.029 26.0133C109.67 24.8959 109.291 23.7815 108.932 22.6641C107.943 19.5822 106.954 16.4993 105.965 13.4154C105.941 13.3329 105.902 13.2548 105.85 13.1844C104.162 17.5075 102.679 21.8962 101.09 26.2568H95.5927C95.5565 26.1475 95.5169 26.0445 95.484 25.9447C93.4668 19.4522 91.4486 12.9586 89.4293 6.46408C89.2051 5.74928 88.9052 5.05321 88.6448 4.34778C88.615 4.25305 88.5579 4.16809 88.4799 4.10246C88.4018 4.03683 88.306 3.99315 88.2032 3.97633C87.5769 3.84835 86.954 3.70789 86.3311 3.57367L86.0015 3.49563V0.736328H97.8373V3.47379C97.4319 3.52685 97.0331 3.57679 96.6408 3.63298C96.2486 3.68916 95.8663 3.74223 95.484 3.8109C95.4051 3.81485 95.3279 3.83366 95.2568 3.86623C95.1858 3.8988 95.1223 3.94449 95.0701 4.00059C95.0179 4.0567 94.9781 4.1221 94.9529 4.19297C94.9278 4.26385 94.9178 4.33876 94.9236 4.41332C94.9045 4.62242 94.9201 4.83306 94.9698 5.0376C95.3433 6.36731 95.7202 7.70014 96.1003 9.0361C97.0957 12.48 98.0944 15.9219 99.0963 19.3617C99.1227 19.4584 99.1623 19.5489 99.2183 19.7019C99.2776 19.5645 99.3172 19.4865 99.3468 19.4053C100.845 15.2934 102.346 11.1815 103.849 7.06963C103.887 6.98569 103.906 6.89546 103.906 6.80431C103.906 6.71315 103.887 6.62293 103.849 6.53899C103.688 6.19251 103.556 5.83356 103.407 5.48084C103.346 5.31589 103.274 5.15436 103.193 4.99702C102.554 3.83899 102.567 3.9139 101.351 3.69541C100.926 3.61737 100.494 3.56742 100.062 3.51436C99.917 3.49563 99.8182 3.46442 99.8182 3.29587C99.8182 2.4531 99.8182 1.61344 99.8182 0.745692H112.135Z" fill="black"></path>
<path d="M141.199 17.7671H127.966C128.002 18.1355 128.015 18.4601 128.068 18.7785C128.154 19.5011 128.285 20.2182 128.46 20.926C128.951 22.599 130.108 23.6229 131.951 23.8788C133.22 24.0774 134.522 23.8215 135.603 23.1609C136.125 22.8373 136.537 22.3777 136.789 21.8374C137.073 21.2725 137.317 20.6919 137.577 20.1144C137.715 19.8023 137.715 19.8023 138.071 19.8023L140.744 19.8366C140.853 19.8366 140.959 19.8366 141.117 19.8522C141.044 20.1644 140.988 20.4765 140.916 20.7668C140.685 21.6972 140.313 22.5909 139.812 23.42C139.387 24.146 138.813 24.7835 138.122 25.2946C137.432 25.8057 136.64 26.1798 135.794 26.3947C134.286 26.8 132.717 26.9594 131.153 26.866C129.685 26.7925 128.25 26.4244 126.944 25.786C126 25.3259 125.169 24.6826 124.505 23.8979C123.841 23.1132 123.359 22.2048 123.091 21.2319C122.589 19.6552 122.395 18.0052 122.518 16.3625C122.699 14.1338 123.454 12.1112 125.046 10.4131C126.17 9.2253 127.638 8.37739 129.268 7.97535C131.232 7.4295 133.33 7.49404 135.253 8.15951C137.778 9.03037 139.439 10.7347 140.398 13.0757C140.819 14.1448 141.062 15.2695 141.117 16.4093C141.143 16.8432 141.17 17.2708 141.199 17.7671ZM135.642 15.1077C135.554 14.284 135.394 13.4686 135.164 12.6699C134.742 11.4214 133.882 10.6223 132.462 10.4537C131.143 10.2977 129.683 10.7097 128.909 12.0612C128.371 12.9977 128.19 14.0464 127.943 15.1077H135.642Z" fill="black"></path>
<path d="M83.6648 17.7298H70.9029C70.4217 17.7298 70.4085 17.7298 70.4513 18.1699C70.4925 19.1785 70.6686 20.178 70.9754 21.1446C71.394 22.2589 72.096 23.1454 73.2826 23.6199C74.5534 24.1189 75.9798 24.1278 77.2575 23.6448C77.7571 23.4803 78.2141 23.2171 78.5982 22.8727C78.9823 22.5283 79.2848 22.1106 79.4856 21.6471C79.7229 21.1415 79.9239 20.6202 80.1448 20.1052C80.1975 19.9741 80.2436 19.8648 80.4315 19.8679C81.4203 19.8929 82.4289 19.9085 83.4308 19.9273C83.4751 19.9378 83.5181 19.9525 83.5594 19.971C83.5198 20.1738 83.4869 20.383 83.4374 20.5952C83.1545 21.9519 82.5405 23.2272 81.6444 24.319C80.8707 25.2469 79.8144 25.9269 78.6187 26.2668C77.4864 26.5955 76.3147 26.7874 75.1316 26.838C73.2918 26.9526 71.4509 26.6307 69.7756 25.9016C68.8481 25.4979 68.0182 24.9176 67.3377 24.1969C66.6573 23.4763 66.1408 22.6306 65.8205 21.7127C65.1794 20.0038 64.9245 18.1864 65.0723 16.3782C65.1997 14.3518 65.9719 12.4094 67.2872 10.8066C68.2962 9.60662 69.6504 8.70898 71.1863 8.22206C72.1307 7.91008 73.12 7.73743 74.1197 7.71014C75.546 7.64996 76.9685 7.89314 78.2825 8.42182C80.0236 9.13388 81.452 10.3929 82.3267 11.9864C82.9432 13.0875 83.3367 14.288 83.4869 15.5261C83.5693 16.1285 83.6154 16.731 83.6714 17.3334C83.6846 17.4395 83.6648 17.5612 83.6648 17.7298ZM70.3887 15.1484H78.1902C78.1974 15.0883 78.1974 15.0275 78.1902 14.9674C78.0683 14.3212 77.9595 13.672 77.8112 13.0321C77.6825 12.3803 77.3614 11.7764 76.885 11.2904C75.8204 10.2416 73.9187 10.0637 72.5476 10.8378C71.7999 11.2752 71.2494 11.9589 71.0017 12.7574C70.8172 13.2818 70.6919 13.8249 70.5469 14.3618C70.5041 14.6084 70.4612 14.8612 70.3986 15.1484H70.3887Z" fill="black"></path>
<path d="M54.9437 22.1778C54.9871 22.1053 55.0257 22.0302 55.059 21.9531C55.9457 19.559 56.8389 17.168 57.6958 14.7739C58.0254 13.8905 58.266 12.9853 58.5363 12.0864C58.5824 11.9067 58.5991 11.7215 58.5857 11.537C58.5822 11.3962 58.53 11.2604 58.4371 11.1505C58.3442 11.0405 58.2158 10.9625 58.0716 10.9283C57.7902 10.8498 57.5007 10.8006 57.208 10.7816C56.8619 10.7567 56.5126 10.7816 56.1665 10.7816C55.883 10.7816 55.8369 10.7192 55.8369 10.4352V8.61539C55.8369 8.28452 55.8369 8.28141 56.2126 8.28141H64.6932C64.7202 8.2783 64.7476 8.28111 64.7734 8.28963C64.7991 8.29815 64.8224 8.31214 64.8415 8.33053C64.8606 8.34893 64.875 8.37124 64.8836 8.39573C64.8921 8.42022 64.8946 8.44625 64.8909 8.47181C64.8909 9.13979 64.8909 9.80777 64.8909 10.4757C64.8909 10.6349 64.7756 10.6786 64.647 10.7192C64.2548 10.8472 63.8626 10.9689 63.4769 11.1063C63.0937 11.2257 62.752 11.4415 62.4882 11.7305C62.341 11.8945 62.223 12.08 62.1388 12.2799C60.8028 15.7675 59.4756 19.2552 58.1573 22.7428C57.7453 23.8259 57.3168 24.9028 56.9147 25.989C56.8933 26.0777 56.8372 26.1554 56.7576 26.2064C56.6781 26.2574 56.5811 26.2779 56.4862 26.2637C54.9481 26.2637 53.4045 26.2637 51.8554 26.2637C51.7661 26.2767 51.6749 26.2567 51.6007 26.208C51.5265 26.1592 51.4749 26.0853 51.4566 26.0015C50.5425 23.5315 49.6218 21.0624 48.6945 18.5945C47.8936 16.4563 47.0466 14.3338 46.2852 12.18C46.1895 11.8321 45.9815 11.5212 45.6902 11.2906C45.3989 11.0601 45.0388 10.9214 44.6603 10.894C44.3702 10.8534 44.0868 10.7785 43.7967 10.7255C43.7617 10.7224 43.7277 10.7127 43.6967 10.6969C43.6658 10.6812 43.6384 10.6598 43.6163 10.6339C43.5942 10.608 43.5778 10.5782 43.568 10.5462C43.5582 10.5142 43.5553 10.4807 43.5594 10.4477C43.5594 9.80153 43.5594 9.15228 43.5594 8.50615C43.5594 8.32823 43.6517 8.26892 43.8231 8.27829C43.8989 8.27829 43.9747 8.27829 44.0505 8.27829H53.5396C53.8297 8.27829 53.8461 8.29701 53.8494 8.59042C53.8494 9.18765 53.8494 9.78384 53.8494 10.379C53.8494 10.6693 53.8099 10.6911 53.4902 10.7317C53.1705 10.7723 52.8013 10.8004 52.4585 10.8628C52.2574 10.9018 52.0639 10.9703 51.885 11.0657C51.4862 11.2779 51.4434 11.3997 51.5554 11.8117C52.0507 13.7313 52.647 15.6262 53.3418 17.4895C53.8527 18.9722 54.3471 20.4611 54.8481 21.95C54.8646 22.0124 54.8975 22.0811 54.9437 22.1778Z" fill="black"></path>
<path d="M167 23.8475V26.2447H155.052C155.052 26.1323 155.026 26.02 155.026 25.9107C155.026 25.3145 155.026 24.7184 155.026 24.1222C155.026 23.81 155.026 23.81 155.339 23.7819L157.57 23.5447C157.591 23.5462 157.612 23.5462 157.633 23.5447C158.421 23.3668 158.454 23.3449 158.529 22.5896C158.589 22.0277 158.648 21.4627 158.648 20.9009C158.648 16.1023 158.648 11.3047 158.648 6.50817C158.648 5.8402 158.615 5.17223 158.592 4.50737C158.6 4.28828 158.53 4.07295 158.393 3.89621C158.256 3.71948 158.06 3.59167 157.837 3.53349C157.45 3.43549 157.054 3.37176 156.654 3.34309C156.202 3.29939 155.744 3.29315 155.29 3.27442C155.125 3.27442 155.019 3.21823 155.023 3.04032C155.023 2.30055 155.052 1.56078 155.069 0.821014C155.069 0.802285 155.085 0.786672 155.108 0.746094H163.523C163.523 0.861585 163.546 0.970836 163.546 1.08008V17.6234C163.546 18.2477 163.523 18.897 163.546 19.5337C163.546 20.3952 163.572 21.2567 163.595 22.1214C163.605 22.2952 163.632 22.4677 163.678 22.6364C163.836 23.2888 164.053 23.4916 164.752 23.5884C165.375 23.6727 166.001 23.7226 166.628 23.7913C166.723 23.8038 166.842 23.8256 167 23.8475Z" fill="black"></path>
<path d="M141.443 3.27987V0.742188H149.914V1.16669C149.914 7.64045 149.914 14.1132 149.914 20.5848C149.884 21.2722 149.93 21.9606 150.052 22.6387C150.23 23.4472 150.312 23.5252 151.192 23.597C151.852 23.65 152.534 23.6844 153.206 23.7281C153.536 23.7499 153.536 23.7499 153.536 24.0402V25.8881C153.536 25.9973 153.536 26.1097 153.536 26.2408H141.459C141.459 26.1503 141.433 26.0816 141.433 26.0129C141.433 25.345 141.433 24.677 141.433 24.009C141.433 23.7468 141.433 23.7343 141.726 23.7187C142.442 23.6719 143.157 23.6313 143.872 23.5876C143.945 23.5876 144.02 23.5595 144.096 23.5595C144.607 23.5595 144.828 23.2692 144.91 22.851C145.001 22.4821 145.056 22.1058 145.072 21.7273C145.072 18.687 145.072 15.6468 145.072 12.6066C145.072 10.149 145.072 7.69351 145.072 5.2401C145.071 4.75644 144.976 4.27704 144.792 3.82611C144.757 3.71874 144.688 3.62426 144.594 3.55596C144.5 3.48766 144.386 3.44895 144.268 3.4453C143.694 3.4016 143.121 3.35167 142.547 3.31421C142.194 3.30484 141.839 3.29548 141.443 3.27987Z" fill="black"></path>
<path d="M43.7277 26.2254C43.5958 26.2254 43.4805 26.241 43.3618 26.241H32.0797C31.8951 26.241 31.8292 26.1692 31.8292 26.0007C31.8292 25.6511 31.8292 25.3046 31.8292 24.955C31.8292 24.6772 31.8292 24.3994 31.8292 24.1216C31.8292 23.8438 31.8292 23.8251 32.1259 23.8095C32.4225 23.7939 32.6235 23.7814 32.874 23.7627C33.3816 23.7221 33.8892 23.6721 34.3968 23.644C34.5389 23.6371 34.6761 23.5925 34.7927 23.5152C34.9092 23.4379 35.0005 23.3311 35.056 23.207C35.2247 22.8951 35.3118 22.5493 35.3098 22.1988C35.3098 20.7412 35.3098 19.2835 35.3098 17.8289C35.3098 16.6896 35.3592 15.5503 35.3493 14.411C35.3493 13.4746 35.2735 12.5381 35.2373 11.6017C35.2371 11.5255 35.2164 11.4505 35.1772 11.3839C35.138 11.3172 35.0815 11.2612 35.0131 11.2209C34.5601 10.9305 34.0242 10.7781 33.4772 10.7839C32.9894 10.7621 32.4884 10.7496 32.0138 10.7309C31.9407 10.723 31.8689 10.7073 31.7996 10.684C31.7996 10.1565 31.7996 9.63526 31.7996 9.12335C31.7996 8.92982 31.8259 8.73318 31.8259 8.53965C31.8259 8.34613 31.8984 8.26809 32.0962 8.28058C32.172 8.28058 32.2478 8.28058 32.3236 8.28058H39.9538C40.1087 8.28058 40.168 8.35237 40.1614 8.49283C40.1548 8.63329 40.1614 8.69572 40.1614 8.80497C40.1614 13.306 40.1614 17.8071 40.1614 22.3081C40.1614 22.3893 40.1614 22.4704 40.1614 22.5547C40.1542 22.8049 40.239 23.0497 40.4014 23.2473C40.5637 23.4449 40.7934 23.5829 41.0513 23.6378C41.3327 23.7133 41.6226 23.7563 41.9149 23.7658C42.4027 23.7876 42.9037 23.7658 43.3816 23.7658C43.7112 23.7658 43.7441 23.8001 43.7441 24.0998C43.7441 24.724 43.7441 25.3483 43.7441 25.9726C43.7436 26.0571 43.7381 26.1415 43.7277 26.2254Z" fill="black"></path>
<path d="M37.1158 5.84956C36.7377 5.8484 36.3635 5.77591 36.0152 5.63632C35.667 5.49674 35.3515 5.29286 35.0874 5.03657C34.8232 4.78029 34.6156 4.47674 34.4766 4.14364C34.3376 3.81054 34.2701 3.45457 34.278 3.0965C34.2614 2.73104 34.3236 2.36622 34.4608 2.02426C34.598 1.68231 34.8072 1.37039 35.0758 1.10754C35.3445 0.844681 35.6668 0.636385 36.0232 0.495358C36.3796 0.35433 36.7626 0.283521 37.1488 0.287249C37.9245 0.285804 38.6707 0.568705 39.231 1.07667C39.7913 1.58464 40.1224 2.27826 40.1547 3.01222C40.1588 3.38935 40.0827 3.76339 39.9309 4.11205C39.7791 4.46072 39.5547 4.77687 39.2711 5.04165C38.9875 5.30643 38.6505 5.51443 38.2802 5.65323C37.91 5.79203 37.514 5.8588 37.1158 5.84956Z" fill="black"></path>
</g>
<defs>
<clipPath id="uejsocalhf-clip0_281_1251">
<rect width="167" height="27" fill="white"></rect>
</clipPath>
</defs>
</svg>